<svg width="66" height="55" viewBox="0 0 66 55" fill="none" xmlns="http://www.w3.org/2000/svg">
<g clip-path="url(#clip0_1_826)">
<path d="M33.8583 17.6725C27.7286 17.6725 21.4099 18.5502 15.5668 20.4861C13.1131 21.3016 10.9239 22.2477 9.00873 23.3029L11.2672 24.3642C12.7477 23.6359 14.3951 22.9636 16.2031 22.3629C21.8037 20.5048 27.9208 19.652 33.8583 19.652H33.8647C39.4022 19.652 44.7791 20.3958 49.422 21.7311C52.5121 22.6181 55.2777 23.776 57.5425 25.1299C58.1819 24.7315 58.7773 24.3206 59.3222 23.8973C56.7267 22.2197 53.5421 20.8565 49.9827 19.8294C45.1319 18.435 39.5786 17.6725 33.8583 17.6725ZM6.97074 24.5354C5.93442 25.2264 5.00205 25.9516 4.18308 26.7079C3.5531 27.2899 2.98611 27.8906 2.48843 28.51C2.58607 28.7528 2.69947 28.9955 2.82862 29.2383L4.01613 29.7954C4.90441 28.6781 6.08877 27.5794 7.56608 26.5398C8.04801 26.2006 8.56145 25.8675 9.10638 25.5407L6.97389 24.5385L6.97074 24.5354ZM61.0105 25.0987C60.494 25.522 59.9396 25.9329 59.3474 26.3282C59.7789 26.6487 60.1853 26.9787 60.5633 27.3179C61.3539 28.0213 61.9965 28.7403 62.5005 29.4593C62.9383 28.815 63.2785 28.1676 63.5242 27.5171C63.0517 26.9475 62.5131 26.3904 61.9051 25.8488C61.6185 25.5936 61.3192 25.3446 61.0074 25.0987M64.8377 29.4437C64.4817 30.116 64.0471 30.7696 63.5431 31.4046C63.8486 32.22 63.9935 33.0293 63.9967 33.8385C63.9967 35.7869 63.143 37.7788 61.3885 39.6961C59.6372 41.6072 56.9881 43.403 53.5358 44.8597L34.4568 52.924L2.82862 38.0745C2.26478 37.0163 2.00334 35.9581 2.00334 34.8967C2.00334 33.7918 2.28998 32.6682 2.87587 31.5322C2.88846 31.5104 2.89791 31.4886 2.91051 31.4699L1.67575 30.891C1.48991 30.8039 1.33871 30.6638 1.23476 30.4895C1.22216 30.4677 1.20956 30.449 1.20011 30.4273C1.16232 30.4957 1.12767 30.5642 1.09302 30.6327C0.381139 32.0053 0 33.4463 0 34.8967C0 36.4031 0.415788 37.9096 1.23791 39.3226C1.33871 39.5 1.49306 39.637 1.6789 39.7241L34.0095 54.9035C34.145 54.9658 34.293 55 34.4411 55C34.5734 55 34.7088 54.9751 34.8348 54.9191L54.3264 46.6804C57.9803 45.1336 60.8688 43.2101 62.8753 41.0282C64.8786 38.8526 66.0032 36.3814 66.0032 33.8416C66.0032 32.441 65.6598 31.0373 64.9731 29.6927C64.9322 29.6118 64.8881 29.5278 64.844 29.4468" fill="#A07ABA"/>
<path d="M33.8583 8.83623C27.7286 8.83623 21.4099 9.71394 15.5668 11.6499C10.6939 13.2683 6.85105 15.4097 4.18308 17.8717C3.5531 18.4537 2.98611 19.0544 2.48843 19.6738C2.58607 19.9165 2.69947 20.1593 2.82862 20.4021L4.01298 20.9592C4.90126 19.8418 6.08562 18.7431 7.56293 17.7005C9.79936 16.1225 12.7004 14.6876 16.2031 13.5267C21.8037 11.6686 27.9208 10.8157 33.8583 10.8157H33.8647C39.4022 10.8157 44.7791 11.5596 49.422 12.8949C54.0682 14.2301 57.9709 16.1691 60.5633 18.4817C61.3539 19.1851 61.9965 19.9041 62.5005 20.6231C62.9383 19.9788 63.2785 19.3314 63.5242 18.6809C63.0517 18.1113 62.5131 17.5542 61.9051 17.0126C58.9852 14.4137 54.8336 12.3906 49.9827 10.9932C45.1319 9.59878 39.5786 8.83623 33.8583 8.83311M64.8408 20.6075C64.4849 21.2798 64.0502 21.9334 63.5462 22.5652C63.8518 23.3807 63.9967 24.1899 63.9998 24.9991C63.9998 25.8333 63.8423 26.6736 63.5273 27.514C64.0471 28.1396 64.4849 28.7839 64.844 29.4437C65.6 28.0182 66.0032 26.5211 66.0032 24.9991C66.0032 23.5985 65.6598 22.1948 64.9731 20.8503C64.9322 20.7693 64.8881 20.6884 64.844 20.6044M2.11044 21.1522L1.68205 22.0454C1.49621 21.9583 1.34501 21.8182 1.24421 21.6439C1.23161 21.6221 1.22216 21.6035 1.20956 21.5817C1.17177 21.6502 1.13712 21.7186 1.10247 21.7871C0.381139 23.169 0 24.6101 0 26.0605C0 27.5451 0.403188 29.0298 1.20326 30.4273C1.5592 29.7736 1.99074 29.1325 2.48843 28.51C2.16084 27.6945 2.00334 26.8791 2.00334 26.0605C2.00334 24.9556 2.28998 23.832 2.87587 22.6959C2.88846 22.6742 2.89791 22.6524 2.91051 22.6337L1.67575 22.0548L2.10414 21.1615L2.11044 21.1522ZM62.5036 29.4562C62.1855 29.9261 61.8138 30.393 61.3885 30.8537C59.6372 32.7616 56.9913 34.5575 53.5358 36.0172L34.46 44.0815L4.01613 29.7954C3.57514 30.3526 3.20661 30.9097 2.91051 31.4699L34.0064 46.0673C34.1418 46.1295 34.2899 46.1638 34.4348 46.1638C34.5702 46.1638 34.7025 46.1389 34.8285 46.0828L54.3201 37.8442C57.974 36.2973 60.8625 34.3738 62.869 32.1889C63.1052 31.9306 63.3289 31.6691 63.5431 31.4046C63.4391 31.1307 63.3194 30.8568 63.1777 30.5798C62.9887 30.2063 62.7619 29.8328 62.5005 29.4593" fill="#DABB01"/>
<path d="M63.5242 27.5171C63.2785 28.1676 62.9383 28.8181 62.5005 29.4593C62.7619 29.8328 62.9887 30.2063 63.1777 30.5798C63.3163 30.8537 63.4391 31.1307 63.5431 31.4046C64.0502 30.7696 64.4818 30.116 64.8377 29.4437C64.4786 28.787 64.0408 28.1427 63.521 27.514M2.4853 28.5069C1.98446 29.1294 1.55607 29.7705 1.20013 30.4241C1.21273 30.4459 1.22218 30.4646 1.23478 30.4864C1.33558 30.6607 1.48993 30.8007 1.67262 30.8879L2.90738 31.4668C3.20033 30.9097 3.56886 30.3494 4.013 29.7923L2.82864 29.2352C2.69949 28.9924 2.58609 28.7496 2.48845 28.5069" fill="#DABB01"/>
<path d="M33.8583 0C27.7286 0 21.4099 0.877709 15.5668 2.81365C10.6939 4.43212 6.85105 6.57348 4.18308 9.03543C2.85067 10.268 1.80805 11.5814 1.09617 12.9571C0.381139 14.3328 0 15.7739 0 17.2243C0 18.7089 0.403188 20.1935 1.20326 21.591C1.5592 20.9374 1.98759 20.2994 2.48843 19.6738C2.16084 18.8583 2.00334 18.0428 2.00334 17.2243C2.00334 16.1193 2.28998 14.9958 2.87587 13.8597C3.75469 12.1603 5.32334 10.4422 7.56293 8.86424C9.79936 7.28623 12.7004 5.85139 16.2031 4.69045C21.8037 2.83232 27.9208 1.97951 33.8583 1.97951H33.8647C39.4022 1.97951 44.7791 2.72339 49.422 4.05863C54.0682 5.39387 57.9709 7.33292 60.5633 9.64546C61.7634 10.7161 62.6233 11.8148 63.1808 12.9073C63.7384 13.9998 63.9967 15.0829 63.9967 16.1629C63.9967 16.9971 63.8392 17.8374 63.5242 18.6778C64.0439 19.3034 64.4818 19.9477 64.8408 20.6075C65.5968 19.182 66 17.6849 66 16.1629C66 14.7623 65.6567 13.3586 64.97 12.014C64.2833 10.6695 63.2596 9.38091 61.9083 8.17328C58.9883 5.57439 54.8367 3.5513 49.9859 2.15381C45.1319 0.762549 39.5786 0 33.8583 0ZM62.5005 20.6262C62.1823 21.0961 61.8106 21.563 61.3854 22.0237C60.7964 22.6648 60.1065 23.2935 59.3222 23.9005C59.9144 24.2833 60.4782 24.6848 61.0074 25.1019C61.6941 24.5416 62.3146 23.9565 62.869 23.3527C63.1052 23.0943 63.3289 22.8329 63.5431 22.5683C63.4391 22.2944 63.3194 22.0205 63.1777 21.7435C62.9887 21.37 62.7619 20.9965 62.5005 20.6231M4.01298 20.9561C3.57199 21.5132 3.20346 22.0703 2.90736 22.6306L6.96759 24.5354C7.60703 24.109 8.28741 23.6981 9.00873 23.3029L4.01298 20.9561ZM11.2672 24.3611C10.4986 24.7377 9.77731 25.1299 9.10008 25.5345L34.0032 37.2248C34.1387 37.2871 34.2867 37.3213 34.4316 37.3213C34.5671 37.3213 34.6994 37.2964 34.8254 37.2404L54.317 29.0018C56.2006 28.205 57.8795 27.3086 59.3379 26.3251C58.7804 25.9111 58.1756 25.5096 57.5362 25.1268C56.355 25.8613 55.0163 26.5523 53.5295 27.181L34.4537 35.2453L11.2641 24.358L11.2672 24.3611Z" fill="#EF8599"/>
<path d="M9.00873 23.3029C8.2874 23.6982 7.60702 24.1121 6.96759 24.5354L9.10008 25.5376C9.77731 25.133 10.4986 24.7408 11.2672 24.3642L9.00873 23.3029ZM59.3222 23.9005C58.7773 24.3238 58.1819 24.7346 57.5425 25.133C58.1851 25.5158 58.7867 25.9173 59.3442 26.3313C59.9333 25.936 60.4877 25.5252 61.0074 25.1019C60.4782 24.6848 59.9144 24.2864 59.3222 23.9005Z" fill="#EF8599"/>
<path d="M63.5242 18.6809C63.2785 19.3314 62.9383 19.9788 62.5004 20.6231C62.7619 20.9966 62.9887 21.37 63.1777 21.7435C63.3163 22.0174 63.4391 22.2944 63.5431 22.5683C64.0502 21.9334 64.4817 21.2798 64.8377 20.6075C64.4786 19.9508 64.0407 19.3065 63.521 18.6778M2.48841 19.6738C1.98757 20.2963 1.55919 20.9343 1.20325 21.591C1.21585 21.6128 1.2253 21.6315 1.2379 21.6533C1.33869 21.8307 1.49304 21.9676 1.67573 22.0548L2.9105 22.6337C3.20344 22.0766 3.57198 21.5163 4.01611 20.9592L2.83175 20.4021C2.7026 20.1593 2.58921 19.9165 2.49156 19.6738" fill="#EF8599"/>
</g>
<defs>
<clipPath id="clip0_1_826">
<rect width="66" height="55" fill="white"/>
</clipPath>
</defs>
</svg>
