<svg width="48" height="48" viewBox="0 0 48 48" fill="none" xmlns="http://www.w3.org/2000/svg">
<path d="M34 31C34 31.5304 33.7893 32.0391 33.4142 32.4142C33.0391 32.7893 32.5304 33 32 33H16C15.4696 33 14.9609 32.7893 14.5858 32.4142C14.2107 32.0391 14 31.5304 14 31V17C14 16.4696 14.2107 15.9609 14.5858 15.5858C14.9609 15.2107 15.4696 15 16 15H21L23 18H32C32.5304 18 33.0391 18.2107 33.4142 18.5858C33.7893 18.9609 34 19.4696 34 20V31Z" stroke="#4C4944" stroke-width="2" stroke-linecap="round"/>
<path d="M24 23V29" stroke="#4C4944" stroke-width="2" stroke-linecap="square" stroke-linejoin="round"/>
<path d="M21 26H27" stroke="#4C4944" stroke-width="2" stroke-linecap="square" stroke-linejoin="round"/>
</svg>
