<svg width="57" height="48" viewBox="0 0 57 48" fill="none" xmlns="http://www.w3.org/2000/svg">
<path d="M22.5 21L19.5 24L22.5 27" stroke="#4C4944" stroke-width="2" stroke-linecap="square"/>
<path d="M28.2231 27.8769V22.7323H26.5V21.44H27.3C28.0303 21.44 28.3954 21.0831 28.3954 20.3692V20H29.8477V27.8769H28.2231Z" fill="#4C4944"/>
<path d="M35.1454 22.7446C35.9003 22.7446 36.5115 22.9908 36.9792 23.4831C37.4469 23.9672 37.6808 24.5826 37.6808 25.3292C37.6808 26.1415 37.4018 26.7897 36.8438 27.2738C36.2859 27.7579 35.5762 28 34.7146 28C33.8941 28 33.2295 27.7785 32.7208 27.3354C32.2121 26.8923 31.9372 26.2892 31.8962 25.5262H33.4592C33.4921 25.8954 33.6233 26.1867 33.8531 26.4C34.0828 26.6133 34.3782 26.72 34.7392 26.72C35.1413 26.72 35.4613 26.5969 35.6992 26.3508C35.9454 26.1046 36.0685 25.7764 36.0685 25.3662C36.0685 24.9477 35.9495 24.6072 35.7115 24.3446C35.4818 24.0738 35.17 23.9385 34.7762 23.9385C34.2018 23.9385 33.7874 24.1641 33.5331 24.6154L32.0808 24.2954L32.4992 20H37.3115V21.3169H33.89L33.6808 23.2C34.05 22.8964 34.5382 22.7446 35.1454 22.7446Z" fill="#4C4944"/>
</svg>
