<svg width="57" height="48" viewBox="0 0 57 48" fill="none" xmlns="http://www.w3.org/2000/svg">
<path d="M34.5 28L37.5 25L34.5 22" stroke="#4C4944" stroke-width="2" stroke-linecap="square"/>
<path d="M21.9206 24.8729C22.7637 25.1957 23.1853 25.8008 23.1853 26.6884C23.1853 27.35 22.9174 27.9027 22.3816 28.3464C21.8536 28.7821 21.1641 29 20.3131 29C19.4463 29 18.7687 28.7781 18.2801 28.3343C17.7994 27.8906 17.5394 27.2895 17.5 26.531H19.0247C19.1587 27.2975 19.5842 27.6808 20.3013 27.6808C20.6874 27.6808 20.9986 27.5799 21.235 27.3782C21.4714 27.1684 21.5896 26.9102 21.5896 26.6036C21.5896 26.2567 21.4714 25.9864 21.235 25.7927C20.9986 25.5991 20.6756 25.5023 20.2658 25.5023H19.5803V24.3283H20.2304C20.5928 24.3283 20.8805 24.2395 21.0932 24.062C21.306 23.8764 21.4123 23.6183 21.4123 23.2874C21.4123 22.9728 21.3099 22.7226 21.105 22.5371C20.9002 22.3434 20.6322 22.2466 20.3013 22.2466C19.994 22.2466 19.73 22.3354 19.5094 22.5129C19.2966 22.6823 19.1587 22.9284 19.0957 23.2511H17.6064C17.63 22.5814 17.9058 22.0408 18.4338 21.6293C18.9696 21.2098 19.6118 21 20.3604 21C21.0774 21 21.6881 21.1977 22.1924 21.593C22.6968 21.9803 22.9489 22.5088 22.9489 23.1785C22.9489 23.9128 22.6061 24.4534 21.9206 24.8003V24.8729Z" fill="#4C4944"/>
<path d="M27.8666 29C26.9368 29 26.2 28.6611 25.6563 27.9834C25.1126 27.3056 24.8407 26.3091 24.8407 24.9939C24.8407 23.6949 25.1126 22.7065 25.6563 22.0287C26.2 21.3429 26.9328 21 27.8548 21C28.7767 21 29.5016 21.3429 30.0296 22.0287C30.5654 22.7065 30.8333 23.6989 30.8333 25.0061C30.8333 26.3212 30.5694 27.3177 30.0414 27.9955C29.5135 28.6652 28.7885 29 27.8666 29ZM27.8666 27.6808C28.7806 27.6808 29.2377 26.7932 29.2377 25.0182C29.2377 24.0903 29.1116 23.4085 28.8594 22.9728C28.6152 22.5371 28.2842 22.3192 27.8666 22.3192C27.4411 22.3192 27.0983 22.5371 26.8383 22.9728C26.5782 23.4085 26.4482 24.0862 26.4482 25.0061C26.4482 25.9259 26.5782 26.6036 26.8383 27.0393C27.0983 27.467 27.4411 27.6808 27.8666 27.6808Z" fill="#4C4944"/>
</svg>
